<?xml version="1.0" encoding="utf-8"?>
<!-- Generator: Adobe Illustrator 16.0.0, SVG Export Plug-In . SVG Version: 6.00 Build 0)  -->
<!DOCTYPE svg PUBLIC "-//W3C//DTD SVG 1.1//EN" "http://www.w3.org/Graphics/SVG/1.1/DTD/svg11.dtd">
<svg version="1.1" id="Layer_1" xmlns="http://www.w3.org/2000/svg" xmlns:xlink="http://www.w3.org/1999/xlink" x="0px" y="0px"
	 width="340px" height="347.3px" viewBox="0 0 340 347.3" enable-background="new 0 0 340 347.3" xml:space="preserve">
<path d="M340,177.301c0,45.68-18.02,87.148-47.33,117.699c-17.84,18.58-39.85,33.119-64.529,42.09
	C210,343.7,190.42,347.301,170,347.301c-93.891,0-170-76.111-170-170C0,84.54,74.3,9.12,166.641,7.34
	c1.119-0.029,2.239-0.039,3.359-0.039c1.641,0,3.279,0.02,4.91,0.069c19.76,0.56,38.68,4.49,56.199,11.25
	C250.34,26.03,267.88,36.83,283,50.301C317.971,81.43,340,126.79,340,177.301z"/>
<g>
	<path fill="#FFFFFF" d="M231.109,18.62c-1.529,3.649-2.299,7.649-2.299,11.979c0,8.451,3.02,15.69,9.06,21.73
		c6.03,6.03,13.21,9.051,21.54,9.051c8.449,0,15.699-3.021,21.73-9.051c0.659-0.66,1.279-1.34,1.859-2.029
		C267.88,36.83,250.34,26.03,231.109,18.62z M164.35,290.081c-6.039-5.92-13.34-8.881-21.91-8.881
		c-8.449,0-15.629,2.961-21.549,8.881c-6.15,6.029-9.23,13.33-9.23,21.91c0,8.439,3.01,15.689,9.05,21.73
		c6.04,6.029,13.28,9.049,21.729,9.049c8.33,0,15.631-3.02,21.91-9.049c6.041-6.041,9.051-13.291,9.051-21.73
		C173.4,303.411,170.391,296.11,164.35,290.081z M290.561,233.221c-7.49-10.381-17.381-18.711-29.701-24.99
		c-5.189-2.771-12.819-6.16-22.899-10.141s-20.44-7.721-31.06-11.23c-27.16-9.049-45.08-17.139-53.78-24.26
		c-8.45-7-12.97-14.67-13.58-23c-24.979,11.59-37.479,30.61-37.479,57.042c0,17.75,5.549,32.539,16.66,44.369
		c11.109,11.83,31.869,21.971,62.289,30.42c20.881,5.791,35.25,12.25,43.09,19.371c7.73,7,11.59,15.689,11.59,26.08
		c0,7.119-2.51,13.85-7.549,20.209c-0.25,0.32-0.511,0.65-0.781,0.971c21.611-3.74,39.42-12.98,53.42-27.701
		c4.791-5.039,8.75-10.16,11.891-15.359c5.95-9.869,8.93-20.02,8.93-30.461C301.6,253.92,297.92,243.481,290.561,233.221z
		 M236.24,75.689c-23.54-7.609-37.85-12.5-42.92-14.67c-5.19-2.049-10.561-6.039-16.11-11.949c-5.8-5.801-8.69-13.34-8.69-22.641
		c0-6.77,2.131-13.119,6.391-19.06c0.6-0.83,1.24-1.66,1.93-2.479c-3.5,0.689-6.9,1.5-10.199,2.449
		c-16.98,4.83-31.391,13-43.211,24.53c-14.25,13.88-21.369,29.569-21.369,47.069c0,14.611,6.699,28.191,20.1,40.75
		c13.279,12.311,38.75,24.681,76.41,37.122c25.35,8.33,42.31,16.229,50.89,23.719c8.44,7.361,12.851,15.031,13.21,22.99
		c25.96-10.5,38.93-29.57,38.93-57.219C301.6,113.11,279.811,89.57,236.24,75.689z"/>
	<path d="M290.02,30.6c0,7.621-2.34,14.181-7.02,19.701C267.88,36.83,250.34,26.03,231.109,18.62c1.541-3.66,3.851-6.97,6.94-9.931
		C244.08,2.891,251.2,0,259.41,0c8.57,0,15.82,2.96,21.73,8.87C287.061,14.79,290.02,22.03,290.02,30.6z"/>
</g>
</svg>
