<?xml version="1.0" encoding="utf-8"?>
<!-- Generator: Adobe Illustrator 16.0.0, SVG Export Plug-In . SVG Version: 6.00 Build 0)  -->
<!DOCTYPE svg PUBLIC "-//W3C//DTD SVG 1.1//EN" "http://www.w3.org/Graphics/SVG/1.1/DTD/svg11.dtd">
<svg version="1.1" id="Layer_1" xmlns="http://www.w3.org/2000/svg" xmlns:xlink="http://www.w3.org/1999/xlink" x="0px" y="0px"
	 width="64px" height="64px" viewBox="0 0 64 64" enable-background="new 0 0 64 64" xml:space="preserve">
<path fill="none" d="M50.393,8.302c-0.154,1.094-0.633,2.042-1.437,2.845c-1.019,1.017-2.239,1.526-3.663,1.526
	c-1.402,0-2.615-0.51-3.632-1.526c-1.019-1.019-1.526-2.237-1.526-3.663c0-1.465,0.52-2.695,1.557-3.694
	c0.049-0.047,0.099-0.093,0.149-0.136C38.758,2.582,35.446,2,31.998,2c-16.569,0-30,13.431-30,30c0,16.568,13.431,30,30,30
	c16.568,0,30-13.432,30-30C61.998,22.363,57.456,13.788,50.393,8.302z M29.27,58.578c-1.059,1.017-2.289,1.525-3.694,1.525
	c-1.424,0-2.645-0.51-3.662-1.525c-1.019-1.018-1.526-2.239-1.526-3.663c0-1.445,0.519-2.676,1.556-3.692
	c0.998-0.998,2.208-1.496,3.632-1.496c1.445,0,2.675,0.498,3.694,1.496c1.016,1.018,1.526,2.247,1.526,3.692
	C30.796,56.339,30.286,57.561,29.27,58.578z M48.895,54.641c-2.36,2.481-5.36,4.039-9.002,4.67c0.935-1.119,1.402-2.31,1.402-3.57
	c0-1.751-0.65-3.217-1.951-4.396c-1.324-1.199-3.746-2.287-7.266-3.265c-5.128-1.424-8.628-3.134-10.5-5.128
	c-1.873-1.994-2.808-4.486-2.808-7.479c0-4.457,2.107-7.662,6.317-9.615c0.103,1.404,0.865,2.696,2.291,3.877
	c1.465,1.2,4.486,2.564,9.063,4.091c1.791,0.589,3.537,1.219,5.236,1.892c1.697,0.671,2.985,1.24,3.86,1.71
	c2.075,1.057,3.743,2.461,5.005,4.211c1.24,1.73,1.861,3.49,1.861,5.281C52.405,49.604,51.234,52.178,48.895,54.641z M45.844,36.632
	c-0.062-1.343-0.804-2.634-2.229-3.876c-1.445-1.263-4.305-2.595-8.577-3.999c-6.349-2.095-10.643-4.181-12.88-6.256
	c-2.259-2.116-3.388-4.405-3.388-6.869c0-2.948,1.2-5.596,3.602-7.936c2.38-2.318,5.382-3.835,9.003-4.548
	c-0.935,1.121-1.403,2.331-1.403,3.632c0,1.569,0.487,2.84,1.465,3.814c0.935,0.999,1.84,1.67,2.715,2.016
	c0.854,0.367,3.268,1.191,7.234,2.472c7.346,2.341,11.019,6.31,11.019,11.903C52.405,31.647,50.219,34.861,45.844,36.632z"/>
</svg>
